<svg version="1.1" id="Layer_1" xmlns="http://www.w3.org/2000/svg" xmlns:xlink="http://www.w3.org/1999/xlink" x="0px" y="0px"
	 viewBox="0 0 89.5 90" style="enable-background:new 0 0 89.5 90;" xml:space="preserve">
<path class="svg-console" d="M80.2,0H9.3C4.2,0,0,4.2,0,9.3v71.4C0,85.8,4.2,90,9.3,90h70.9c5.1,0,9.3-4.2,9.3-9.3V9.3C89.5,4.2,85.3,0,80.2,0z
	 M36.3,33.5l-0.2,0.2l-0.2,0.1c-1,0.7-2.2,1.6-3.6,2.6c-1.5,1.1-2.9,2.1-4.1,3c-1.4,1.1-2.8,2.1-4.1,3c-1.3,1-2.5,1.9-3.6,2.7
	l-0.2,0.2l-0.2,0.1c-0.9,0.4-1.9,0.6-2.8,0.6c-1.4,0-2.7-0.5-3.7-1.4c-1-1-1.6-2.3-1.6-3.7c0-1.3,0.4-2.5,1.2-3.6l0.2-0.3l0.3-0.2
	c0.9-0.6,1.9-1.4,3-2.2c1.2-0.9,2.3-1.7,3.4-2.5c1.2-0.9,2.4-1.8,3.5-2.6c0,0,0,0,0,0c-1.1-0.8-2.2-1.7-3.4-2.6
	c-1.2-0.9-2.3-1.8-3.4-2.7c-1.1-0.9-2.1-1.6-2.8-2.2l-0.2-0.2l-0.2-0.2c-1-1.2-1.5-2.5-1.5-3.9c0-1.4,0.5-2.7,1.5-3.7
	c1-1,2.3-1.5,3.8-1.5c0.7,0,1.5,0.2,2.4,0.5l0.2,0.1l0.2,0.1c0.3,0.2,0.7,0.5,1.8,1.4c0.7,0.6,1.6,1.3,2.6,2.1
	c1.1,0.8,2.2,1.7,3.4,2.7c1.2,0.9,2.3,1.8,3.3,2.6c1.1,0.8,2,1.6,2.8,2.2c0.7,0.6,1.2,1,1.4,1.2c1.9,1.5,2.3,3.2,2.3,4.4
	C38.1,30.4,37.8,32,36.3,33.5z M72.2,56.3c-0.8,0.9-1.9,1.5-3.3,1.9l-0.3,0.1H44.9l-0.1,0c-2.1-0.2-3.3-1.2-4-1.9
	c-0.9-1-1.3-2.2-1.3-3.5c0-1.4,0.5-2.6,1.5-3.7c1-1,2.3-1.6,4-1.8l0.1,0h23.6l0.4,0.1c1.4,0.4,2.6,1.1,3.3,2.1
	c0.8,1,1.1,2.1,1.1,3.2C73.5,54.1,73.1,55.3,72.2,56.3z"/>
</svg>
