<svg version="1.1" id="Layer_1" xmlns="http://www.w3.org/2000/svg" xmlns:xlink="http://www.w3.org/1999/xlink" x="0px" y="0px"
	 viewBox="0 0 100 100" style="enable-background:new 0 0 100 100;" xml:space="preserve">
  <g>
    <path d="M55.5,25.7C53.7,25.3,51.8,25,50,25c-5.3,0-10.5,1.7-14.8,4.9l4.5,5.3c3-2.1,6.6-3.3,10.3-3.3c1.3,0,2.7,0.1,4,0.4
      c1.3,0.3,2.7,0.8,3.8,1.3l3.6-5.9C59.5,26.8,57.5,26.1,55.5,25.7z"/>
    <path d="M44.4,74.3c1.9,0.4,3.7,0.7,5.6,0.7c5.6,0,11.1-1.8,15.5-5.4c1.2-0.9,2.3-2,3.2-3l-5.4-4.2c-0.7,0.7-1.3,1.3-2,1.8
      c-3.2,2.5-7.2,4-11.3,4c-1.3,0-2.7-0.1-4-0.4c-9.3-2.1-15.2-10.8-13.9-20.1l-6.8-1.6C23.2,58.9,31.6,71.4,44.4,74.3z"/>
    <path d="M26,42.9l6.8,1.6c0.9-2.8,2.4-5.3,4.5-7.3L32.8,32C29.6,34.9,27.2,38.7,26,42.9z"/>
    <path d="M74.4,55.5C76.7,45.2,72.2,35,64,29.4l-3.4,5.9c5.7,4.1,8.7,11.3,7.2,18.6c-0.5,2.1-1.3,4.1-2.5,5.8l5.4,4.2
      C72.4,61.4,73.7,58.5,74.4,55.5z"/>
    <path d="M47.3,50.2c0,1.6,1.3,2.8,2.8,2.8c1.6,0,2.8-1.3,2.8-2.8c0-1.6-1.3-2.8-2.8-2.8C48.7,47.3,47.3,48.6,47.3,50.2z M50.2,48.6
      c0.9,0,1.6,0.7,1.6,1.6c0,0.9-0.7,1.6-1.6,1.6c-0.9,0-1.6-0.7-1.6-1.6C48.7,49.3,49.3,48.6,50.2,48.6z"/>
    <path d="M38.1,49.9c0,6.7,5.4,12.1,12.2,12.1s12.2-5.4,12.2-12.1S57,37.8,50.2,37.8S38.1,43.2,38.1,49.9z M54.4,50.2
      c0,2.2-1.9,4.1-4.1,4.1c-2.3,0-4.1-1.8-4.1-4.1c0-2.2,1.9-4.1,4.1-4.1C52.5,46,54.4,47.8,54.4,50.2z"/>
  </g>
</svg>
