<svg version="1.1" id="Layer_1" xmlns="http://www.w3.org/2000/svg" xmlns:xlink="http://www.w3.org/1999/xlink" x="0px" y="0px"
	 viewBox="0 0 100 100" style="enable-background:new 0 0 100 100;" xml:space="preserve">
	<g>
		<path d="M93.7,50.4C92.9,49.3,74,23.8,50,23.8c-24,0-42.9,25.5-43.7,26.6L5,52.3l1.3,1.9C7.1,55.2,26,80.8,50,80.8
			c24,0,42.9-25.5,43.7-26.6l1.3-1.9L93.7,50.4z M50,74.5c-17.3,0-32.4-16.5-37.1-22.2c4.6-5.6,19.7-22.2,37.1-22.2
			c17.3,0,32.4,16.5,37.1,22.2C82.5,57.9,67.4,74.5,50,74.5z"/>
	</g>
</svg>
