<svg version="1.1" id="Layer_1" xmlns="http://www.w3.org/2000/svg" xmlns:xlink="http://www.w3.org/1999/xlink" x="0px" y="0px"
	 viewBox="0 0 88.9 63.6" style="enable-background:new 0 0 88.9 63.6;" xml:space="preserve">
<path class="svg-next" d="M86.4,27.1l-0.6-0.4L41.6,1.2c-0.4-0.3-0.9-0.6-1.4-0.8C39.6,0.1,38.8,0,38.1,0c-3.1,0-5.7,2.5-5.7,5.7v9
	L9.2,1.2C8.8,0.9,8.3,0.6,7.8,0.4C7.1,0.1,6.4,0,5.7,0C2.5,0,0,2.5,0,5.7v52.2c0,3.1,2.5,5.7,5.7,5.7c0.6,0,1.2-0.1,1.7-0.2
	c0.8-0.3,1.5-0.7,2.1-1.2l22.9-13.2v9.1c0,3.1,2.5,5.7,5.7,5.7c0.6,0,1.2-0.1,1.7-0.2c0.8-0.3,1.5-0.7,2.1-1.2l43.3-25
	c0.6-0.2,1.1-0.5,1.6-0.9c1.3-1,2.1-2.6,2.1-4.4C88.9,29.8,87.9,28.1,86.4,27.1z"/>
</svg>
