<svg version="1.1" id="Layer_1" xmlns="http://www.w3.org/2000/svg" xmlns:xlink="http://www.w3.org/1999/xlink" x="0px" y="0px"
	 viewBox="0 0 77.8 88.9" style="enable-background:new 0 0 77.8 88.9;" xml:space="preserve">
<g class="svg-pause">
	<path class="st0" d="M33.6,79.6c0,5.1-4.1,9.3-9.3,9.3H9.3c-5.1,0-9.3-4.1-9.3-9.3V9.3C0,4.1,4.1,0,9.3,0h15.1
		c5.1,0,9.3,4.1,9.3,9.3L33.6,79.6L33.6,79.6z"/>
	<path class="st0" d="M77.8,79.6c0,5.1-4.1,9.3-9.3,9.3H53.5c-5.1,0-9.3-4.1-9.3-9.3V9.3c0-5.1,4.2-9.3,9.3-9.3h15.1
		c5.1,0,9.3,4.1,9.3,9.3L77.8,79.6L77.8,79.6z"/>
</g>
</svg>
