<svg version="1.1" id="Layer_1" xmlns="http://www.w3.org/2000/svg" xmlns:xlink="http://www.w3.org/1999/xlink" x="0px" y="0px"
	 viewBox="0 0 77.9 89" style="enable-background:new 0 0 77.9 89;" xml:space="preserve">
<path class="svg-refresh" d="M73.8,46c-2.3,0-4.1,1.8-4.1,4.1c0,8.2-3.2,15.9-9,21.8c0,0,0,0,0,0c-5.8,5.8-13.5,9-21.8,9
	c-0.9,0-1.9,0-2.8-0.1c-7.2-0.6-13.8-3.7-19-8.9c-5.8-5.8-9-13.5-9-21.8c0-0.3,0-0.5,0-0.8c0,0,0-0.1,0-0.1c0-0.2,0-0.5,0-0.7
	c0,0,0,0,0,0c0.8-15.3,12.9-27.7,28.1-29l-5.7,5.7c-1.6,1.6-1.6,4.2,0,5.8c0.8,0.8,1.8,1.2,2.9,1.2c1,0,2.1-0.4,2.9-1.2L48,19.3
	c0.8-0.8,1.2-1.8,1.2-2.9s-0.4-2.1-1.2-2.9L35.7,1.2c-1.6-1.6-4.2-1.6-5.8,0c-1.6,1.6-1.6,4.2,0,5.8l4.5,4.5
	c-8.8,1-16.6,5-22.6,10.8c-0.1,0.1-0.2,0.2-0.3,0.3C4.5,29.5,0.5,38.4,0.1,48.1c0,0,0,0,0,0c0,0.3,0,0.6,0,0.9c0,0,0,0.1,0,0.1
	c0,0.3,0,0.7,0,1v0c0,10.4,4,20.2,11.4,27.5c4.6,4.6,10.1,7.9,16.2,9.7C31.2,88.5,35,89,38.9,89c0,0,0,0,0,0
	c10.4,0,20.2-4.1,27.5-11.4c7.4-7.3,11.4-17.1,11.4-27.5C77.9,47.9,76,46,73.8,46z"/>
</svg>
