<svg version="1.1" id="Layer_1" xmlns="http://www.w3.org/2000/svg" xmlns:xlink="http://www.w3.org/1999/xlink" x="0px" y="0px"
	 viewBox="0 0 47.1 47.1" style="enable-background:new 0 0 47.1 47.1;" xml:space="preserve">
<g class="svg-stack">
	<path d="M22.6,0.2L0.7,11.6c-0.9,0.5-0.9,1.9,0,2.4l21.9,11.4c0.6,0.3,1.3,0.3,1.9,0L46.4,14c0.9-0.5,0.9-1.9,0-2.4l-22-11.4
		C23.8-0.1,23.2-0.1,22.6,0.2z"/>
	<path d="M46.3,22.2l-4.1-2.1c-0.2-0.1-0.5-0.1-0.8,0l-15.7,8.2c-0.7,0.4-1.5,0.5-2.2,0.5c-0.8,0-1.5-0.2-2.2-0.5L5.6,20.1
		c-0.2-0.1-0.5-0.1-0.8,0l-4.1,2.1c-0.9,0.5-0.9,1.9,0,2.4L22.6,36c0.6,0.3,1.3,0.3,1.9,0l21.9-11.4C47.2,24.1,47.2,22.7,46.3,22.2z
		"/>
	<path d="M46.3,33l-4.1-2.1c-0.2-0.1-0.5-0.1-0.8,0l-15.7,8.2c-0.7,0.4-1.5,0.5-2.2,0.5c-0.8,0-1.5-0.2-2.2-0.5L5.6,30.9
		c-0.2-0.1-0.5-0.1-0.8,0L0.7,33c-0.9,0.5-0.9,1.9,0,2.4l21.9,11.4c0.6,0.3,1.3,0.3,1.9,0l21.9-11.4C47.2,34.9,47.2,33.5,46.3,33z"
		/>
</g>
</svg>
