<svg xmlns="http://www.w3.org/2000/svg" xmlns:xlink="http://www.w3.org/1999/xlink" version="1.1" x="0px" y="0px" viewBox="0 0 100 125" enable-background="new 0 0 100 100" xml:space="preserve">
  <path d="M61.25,34.984h-22.5c-4.142,0-7.5-3.362-7.5-7.508v-7.508c0-4.146,3.358-7.508,7.5-7.508h22.5c4.142,0,7.5,3.362,7.5,7.508  v7.508C68.75,31.623,65.392,34.984,61.25,34.984z"/>
  <path d="M35,87.539H12.5c-4.142,0-7.5-3.362-7.5-7.508v-7.508c0-4.146,3.358-7.508,7.5-7.508H35c4.142,0,7.5,3.362,7.5,7.508v7.508  C42.5,84.178,39.142,87.539,35,87.539z"/>
  <path d="M87.5,87.539H65c-4.142,0-7.5-3.362-7.5-7.508v-7.508c0-4.146,3.358-7.508,7.5-7.508h22.5c4.142,0,7.5,3.362,7.5,7.508  v7.508C95,84.178,91.642,87.539,87.5,87.539z"/>
  <path d="M53.75,50h-7.5V34.984h7.5V50z"/>
  <path d="M80,65.016h-7.5V53.754h-45v11.262H20v-18.77h60V65.016z"/>
</svg>
